<?xml version="1.0" encoding="UTF-8"?>
<svg id="Layer_2" xmlns="http://www.w3.org/2000/svg" version="1.1" viewBox="0 0 96.5 96.5">
  <!-- Generator: Adobe Illustrator 29.7.0, SVG Export Plug-In . SVG Version: 2.1.1 Build 138)  -->
  <defs>
    <style>
      .st0 {
        fill: #fff;
      }
    </style>
  </defs>
  <rect class="st0" width="96.5" height="96.5"/>
  <g id="Layer_1-2">
    <g>
      <rect class="st0" x="32.2" y="21.1" width="43.3" height="43.3" rx="6.4" ry="6.4"/>
      <path d="M68,23c3.1,0,5.6,2.5,5.6,5.6v28.3c0,3.1-2.5,5.6-5.6,5.6h-28.3c-3.1,0-5.6-2.5-5.6-5.6v-28.3c0-3.1,2.5-5.6,5.6-5.6h28.3M68,17.4h-28.3c-6.1,0-11.1,5-11.1,11.1v28.3c0,6.1,5,11.1,11.1,11.1h28.3c6.1,0,11.1-5,11.1-11.1v-28.3c0-6.1-5-11.1-11.1-11.1h0Z"/>
      <path d="M68,39.7v28.3c0,6.1-5,11.1-11.1,11.1h-28.3c-6.1,0-11.1-5-11.1-11.1v-28.3c0-6.1,5-11.1,11.1-11.1h28.3c6.1,0,11.1,5,11.1,11.1Z"/>
      <path class="st0" d="M55.5,46.8v21.2h-5.6v-20.7c0-.9-.2-1.6-.6-2.1s-1-.8-1.8-.8-1.3.3-1.7.8c-.4.5-.6,1.2-.6,2.1v20.7h-5.1v-20.7c0-.9-.2-1.6-.6-2.1-.4-.5-1-.8-1.7-.8s-1.4.3-1.8.8c-.4.5-.6,1.2-.6,2.1v20.7h-5.6v-27.8h5.3v4h.1c.1-1.2.5-2.3,1.2-3.1.8-1,2-1.5,3.4-1.5s2.8.6,3.7,1.7c.6.7,1,1.6,1.2,2.5.2-1.2.6-2.1,1.3-2.8.9-.9,2-1.4,3.5-1.4s3.1.7,4.2,2c1.1,1.3,1.6,3,1.6,5.2Z"/>
    </g>
  </g>
</svg>